<?xml version="1.0" encoding="UTF-8" standalone="no"?> <svg id="Layer_1" data-name="Layer 1" xmlns="http://www.w3.org/2000/svg" viewBox="0 0 64 64"><defs><style>.cls-1{fill:#915441;}.cls-2{fill:#35251c;}</style></defs><title>Coffee Beans Icon</title><ellipse class="cls-1" cx="22.4" cy="39.98" rx="15.07" ry="20.75" transform="translate(-14.98 13.47) rotate(-25.39)"/><path class="cls-2" d="M37.37,32.88C32.11,21.79,21.12,16,12.86,19.88S2.17,36,7.43,47.09c4.15,8.74,11.87,14.22,19,14.22a12.84,12.84,0,0,0,5.51-1.22C36,58.15,38.82,54.19,39.8,49A26.52,26.52,0,0,0,37.37,32.88ZM10.14,45.8c-3.55-7.5-3.22-15.48.32-20.15-.22,3.29.71,8,5.33,13.59A98.82,98.82,0,0,0,23,46.94c4.06,4,6.62,6.59,6.82,10.77C23.13,60.12,14.51,55,10.14,45.8Zm26.71,2.6a12.75,12.75,0,0,1-4.21,7.7c-.71-4.47-3.68-7.43-7.56-11.29a97.89,97.89,0,0,1-7-7.47c-6.64-8.05-4.5-13.49-3.79-14.82a10,10,0,0,1,4.13-.88c6,0,12.57,4.86,16.21,12.52A23.57,23.57,0,0,1,36.85,48.4Z"/><ellipse class="cls-1" cx="48.69" cy="19.33" rx="15.2" ry="11.03" transform="translate(17.16 61.17) rotate(-74.65)"/><path class="cls-2" d="M60.46,10.51c-1.42-3.78-4-6.37-7.35-7.28s-6.89,0-10,2.5A20,20,0,0,0,36.6,16c-2.44,8.88,1,17.59,7.67,19.42a9.44,9.44,0,0,0,2.58.35,12,12,0,0,0,7.45-2.85,19.84,19.84,0,0,0,6.48-10.28A19.92,19.92,0,0,0,60.46,10.51Zm-21,6.3c1.41-5.13,4.68-9,8.25-10.38-1.43,1.88-2.67,4.8-2.77,9.32a75.78,75.78,0,0,0,.3,7.74c.32,4.08.51,6.51-1.1,8.73C39.71,30.29,37.62,23.65,39.49,16.81Zm18.39,5.05a16.88,16.88,0,0,1-5.45,8.73,9.22,9.22,0,0,1-5.07,2.15c1.42-2.78,1.19-5.83.9-9.48A74,74,0,0,1,48,15.82c.15-7.1,3.5-9.13,4.59-9.61a8.36,8.36,0,0,1,5.09,5.35A16.89,16.89,0,0,1,57.88,21.86Z"/></svg>