<?xml version="1.0" encoding="UTF-8" standalone="no"?> <svg id="Layer_1" data-name="Layer 1" xmlns="http://www.w3.org/2000/svg" viewBox="0 0 64 64"><defs><style>.cls-1{fill:#fff;}.cls-2{fill:#e5e5e5;}.cls-3{fill:#915441;}.cls-4{fill:#5e3128;}.cls-5{fill:#844e40;}.cls-6{fill:#35251c;}.cls-7{fill:#d1d1d1;}</style></defs><title>Drip Coffee Filter Icon</title><path class="cls-1" d="M16,24.14V57.92a3.2,3.2,0,0,0,3,3.36H44.18a3.2,3.2,0,0,0,3-3.36V24.14Z"/><path class="cls-2" d="M33.37,61.28H44.18a3.2,3.2,0,0,0,3-3.36V24.14H33.37Z"/><path class="cls-3" d="M16,49.67v8.25a3.2,3.2,0,0,0,3,3.36H44.18a3.2,3.2,0,0,0,3-3.36V49.67Z"/><path class="cls-4" d="M33.37,61.28H44.18a3.2,3.2,0,0,0,3-3.36V49.67H33.37Z"/><path class="cls-5" d="M34.86,43.57a2.77,2.77,0,1,1-5.53,0c0-1.52,2.76-5.35,2.76-5.35S34.86,42.05,34.86,43.57Z"/><path class="cls-4" d="M33.37,46a2.76,2.76,0,0,0,1.49-2.44,8.88,8.88,0,0,0-1.49-3.41Z"/><path class="cls-6" d="M51,27.91h0a15.08,15.08,0,0,0-2.35-.31v-5H14.51V57.92A4.7,4.7,0,0,0,19,62.78H44.18a4.7,4.7,0,0,0,4.5-4.86V47.8a12.49,12.49,0,0,0,8.79-9.26C58.38,33.16,55.85,29,51,27.91Zm-5.35,30a1.73,1.73,0,0,1-1.5,1.86H19a1.73,1.73,0,0,1-1.5-1.86V25.64H45.68ZM54.16,38.1a9.39,9.39,0,0,1-5.48,6.51v-14a10.45,10.45,0,0,1,1.53.21C53.9,31.6,54.67,35.1,54.16,38.1Z"/><polygon class="cls-2" points="32.08 34.19 12.41 10.06 49.06 10.06 32.08 34.19"/><polygon class="cls-7" points="33.37 32.35 49.06 10.06 33.37 10.06 33.37 32.35"/><polygon class="cls-3" points="23.43 23.58 32.08 34.19 39.55 23.58 23.43 23.58"/><polygon class="cls-4" points="33.37 32.35 39.55 23.58 33.37 23.58 33.37 32.35"/><path class="cls-6" d="M9.26,8.56,32.17,36.67,52,8.56Zm36.91,3-2.12,3H18l-2.45-3ZM32,31.71,20.47,17.57H41.94Z"/></svg>